PathFileType	4	(X/Y/Z)	Walk7.trc
DataRate	CameraRate	NumFrames	NumMarkers	Units	OrigDataRate	OrigDataStartFrame	OrigNumFrames
200.000000	200.000000	6	55	mm	200.000000	403	591
Frame#	Times		RFA1		RASI		RUA1		RACR1		RBHD		C7		LFA1		RTH2		RCAR		RTH3		RBack		RElbow		RTB3		RTB1		LElbowM		RMT1		RMT5		RLFC		LTH2		RTB2		RTH4		LTH3		LACR1		RTB4		LElbow		LPSI		RMMAL		LWRU		CLAV		LTH4		RWRR		RPSI		LBHD		LTB1		T10		LLFC		RToe		LFHD		RWRU		LTB3		RTH1		LTB2		LTB4		LMT1		LTH1		LCAL		LMT5		LWRR		LLMAL		RElbowM		RLMAL		LToe		RCAL		LUA1		LCAR
			X1	Y1	Z1	X2	Y2	Z2	X3	Y3	Z3	X4	Y4	Z4	X5	Y5	Z5	X6	Y6	Z6	X7	Y7	Z7	X8	Y8	Z8	X9	Y9	Z9	X10	Y10	Z10	X11	Y11	Z11	X12	Y12	Z12	X13	Y13	Z13	X14	Y14	Z14	X15	Y15	Z15	X16	Y16	Z16	X17	Y17	Z17	X18	Y18	Z18	X19	Y19	Z19	X20	Y20	Z20	X21	Y21	Z21	X22	Y22	Z22	X23	Y23	Z23	X24	Y24	Z24	X25	Y25	Z25	X26	Y26	Z26	X27	Y27	Z27	X28	Y28	Z28	X29	Y29	Z29	X30	Y30	Z30	X31	Y31	Z31	X32	Y32	Z32	X33	Y33	Z33	X34	Y34	Z34	X35	Y35	Z35	X36	Y36	Z36	X37	Y37	Z37	X38	Y38	Z38	X39	Y39	Z39	X40	Y40	Z40	X41	Y41	Z41	X42	Y42	Z42	X43	Y43	Z43	X44	Y44	Z44	X45	Y45	Z45	X46	Y46	Z46	X47	Y47	Z47	X48	Y48	Z48	X49	Y49	Z49	X50	Y50	Z50	X51	Y51	Z51	X52	Y52	Z52	X53	Y53	Z53	X54	Y54	Z54	X55	Y55	Z55

403	2.015	340.65	984.18	547.89	239.08	912.86	398.82	223.76	1202.4	497.26	233.1	1381.8	395.05	196.88	1564.9	308.35	157.05	1420.6	253.26	55.633	945.63	-48.367	190.12	616.52	393.18	483.73	876.48	521.34	99.809	537.07	406.9	92.772	1329.1	360.2	217.96	1076.6	549.04	-90.292	196.48	301.83	34.708	340.07	304.58	24.654	1092.7	84.612	-97.06	38.184	253.07	-120	35.839	341.54	62.307	438.08	389.97	358.05	679.32	89.539	-32.485	270.38	377.63	124.25	625.95	423.8	334.21	566.62	77.041	171.08	1398.7	76.749	-24.681	269.34	303.68	29.398	1093.9	5.1186	73.065	941.22	177.46	-172.46	146.41	257.31	2.2721	837.45	-39.469	290.17	1336.8	229.47	294.65	645.75	58.066	458.38	933.34	484.68	64.852	941.31	282.35	199.2	1560.9	169.43	437.62	385.35	160.71	60.286	1110.4	244.93	378.2	462.38	97.463	-46.266	25.066	269.95	382.54	1569	196.07	415.28	882.34	525.42	449.15	200.52	174.48	147.78	718.2	434.12	417.47	286.05	100.4	442.15	292.36	167.79	562.24	42.372	219.75	252.56	734.26	51.409	354.77	28.923	200.7	533.7	33.541	139.52	81.388	825.25	-24.013	396.97	69.62	152.19	194.17	1030.4	462.47	-198.66	144.81	345.27	603.33	52.57	203.43	-267.52	130.18	305.35	86.875	1210.5	3.084	52.536	777.53	-69.918
404	2.02	345.88	983.95	547.55	245.95	912.92	398.78	230.26	1203.1	497	240.39	1382.6	394.35	203.85	1565.3	307.42	164.37	1421.1	252.25	62.835	945.67	-48.538	198.94	616.44	393.05	487.78	875.13	520.79	109.59	536.07	406.69	100.24	1330.2	359.77	223.53	1077.6	548.41	-83.918	198.07	302.61	43.676	339.53	305.14	32.475	1092.6	84.667	-96.263	38.44	253.04	-118.68	36.418	341.21	72.952	437.38	390.02	365.41	681.23	89.234	-25.014	271.39	378.33	133.19	625.47	423.31	342.39	568.12	77.021	178.51	1398.9	75.995	-16.942	269.68	304.17	37.047	1093.7	4.9987	80.355	941.61	177.93	-166.93	149.65	257.93	8.9939	837.63	-39.755	297.75	1337.3	228.68	302.34	647.08	57.693	462.96	932.39	484.77	71.781	941.37	282.51	206.13	1561.5	168.49	444.09	384.78	159.94	67.664	1110.9	245.13	386.07	463.02	97.198	-46.513	25.042	270.82	389.57	1569.5	195.01	419.18	881.55	525.66	452.46	199.9	174.2	155.81	717.88	433.55	421.51	285.76	99.993	447.03	291.76	167.15	563.57	41.535	220.49	259.61	734.97	50.359	355.51	29.212	200.5	534.87	32.878	138.97	88.138	825.21	-24.223	398.19	69.719	152.07	199.07	1031.1	461.82	-193.47	148.92	345.87	604.82	51.259	204.36	-262.21	136.79	305.22	94.119	1210.4	2.7792	58.999	777.61	-70.144
405	2.025	350.69	983.8	547.41	253.11	913.31	398.25	236.52	1204	496.21	247.98	1383.4	393.64	211.04	1566	306.25	171.73	1421.7	251.57	70.161	945.83	-48.783	208.03	616.61	392.64	491.58	873.58	520.45	119.44	535.01	406.51	107.62	1331.3	359.18	228.95	1078.1	547.86	-77.028	199.73	303.92	53.247	338.77	305.9	40.58	1093.2	84.4	-95.325	38.672	252.9	-117.61	37.115	341.02	83.493	436.77	390.21	372.18	683.2	89.372	-17.339	272.85	379.45	142.18	624.93	422.76	350.59	569.74	76.796	185.85	1399.3	75.487	-8.4813	270.14	305.37	44.562	1094	5.0166	88.36	942.31	178.2	-160.81	152.95	258.22	15.889	837.88	-40.079	305.19	1337.8	228.06	310.03	648.33	57.418	467.57	931.02	484.65	78.766	941.94	282.53	213.03	1561.6	167.4	450.66	384.14	159.09	74.766	1111.5	245.46	393.01	463.25	97.093	-46.703	24.971	271.4	396.63	1570.4	193.9	423.03	880.71	525.76	455.58	199.31	174.04	163.43	717.55	432.95	425.34	285.42	99.85	451.58	291.39	166.64	564.33	41.447	221.62	266.32	735.79	49.27	355.7	29.346	200.36	535.65	32.376	138.45	95.178	825.22	-24.607	399.29	69.781	152.14	203.79	1032.2	461.13	-187.89	153.65	346.55	606.1	48.006	203.76	-256.37	143.73	305.17	101.56	1210.6	2.4222	65.823	777.66	-70.465
406	2.03	355.22	983.67	547.24	260.68	913.39	397.46	243.09	1204.8	496.02	255.75	1384.2	393.01	218.29	1566.8	305.25	179.06	1422.6	251.09	77.493	946.19	-49.093	217.38	616.69	392.37	495.2	872.09	521.35	129.76	533.9	406.29	114.86	1332.2	358.75	234.71	1078.9	547.25	-69.206	201.46	304.95	63.636	338.16	306.85	48.217	1093.5	84.141	-94.463	38.793	252.63	-116.58	38.239	340.73	94.628	435.82	390.62	379.08	685.03	89.517	-8.7948	274.28	380.25	151.2	624.24	422.32	358.67	571.36	76.501	193.17	1399.7	74.804	0.42281	270.41	306.77	51.939	1094.2	4.6546	95.417	942.83	178.1	-153.94	156.51	259.11	22.929	838.27	-40.052	312.21	1338.5	227.78	317.39	649.63	57.012	471.75	929.49	484.6	85.654	942.32	282.34	220.14	1562	166.28	456.61	383.71	158.75	81.569	1112.6	245.47	398.98	463.65	97.392	-47.028	24.735	272.3	403.99	1571.4	192.62	426.93	879.9	525.46	457.88	198.49	174.05	171.52	717.27	432.23	428.9	285.05	99.653	455.91	290.82	166.18	565	40.922	222.07	273.1	736.64	48.372	355.79	29.473	200.26	536.3	32.111	138.23	102.17	825.26	-24.755	400.06	69.832	152.44	208.83	1033.4	460.57	-181.65	158.18	347	607.23	45.461	203.34	-249.54	150.53	305.01	109.35	1210.7	2.1587	72.658	778.01	-70.824
407	2.035	359.43	983.57	547.02	267.38	913.45	396.96	249.44	1205.8	495.68	263.12	1385.1	392.46	225.38	1567.6	304.15	186.22	1423.4	250.47	84.738	946.63	-49.065	226.85	616.61	392.29	498.79	870.42	521.74	140.66	532.77	406.19	122.5	1333.6	358.41	239.92	1079.8	546.76	-60.926	203.17	305.8	74.322	337.14	307.54	55.657	1093.8	84.074	-93.381	38.95	252.64	-114.79	39.715	340.61	106.54	435.01	391.04	385.59	686.47	89.992	0.18851	275.39	381.07	160.63	623.44	421.95	366.43	572.72	76.006	200.62	1400	74.302	9.7749	270.46	308.03	59.536	1094.8	4.3539	102.56	943.6	178.33	-146.05	159.57	260.02	30.206	838.77	-40.237	319.49	1339.1	227.45	324.36	650.56	56.864	475.7	928.13	484.72	92.523	942.72	282.4	227.38	1562.3	165.27	462.26	383.06	158.3	88.391	1113.3	245.52	404.34	463.98	97.666	-47.139	24.369	273.74	410.87	1572	191.4	430.56	878.8	525.07	460.12	197.99	174.31	179.53	716.86	431.53	432.09	284.77	99.82	459.83	290.29	166.29	565.44	39.963	222.5	279.91	737.43	47.894	355.9	29.564	200.28	536.85	31.979	138.31	109.71	825.63	-25.079	400.5	70.015	152.84	214.33	1034.7	459.99	-174.71	162.34	347.21	608.33	43.554	204.02	-241.97	157.52	304.76	117.12	1211.1	1.9227	79.88	778.48	-71.136
408	2.04	363.95	983.25	546.64	273.54	914.16	396.79	256.02	1206.6	495.35	270.3	1386	391.99	232.59	1568.4	303.32	193.32	1424.1	250	92.25	947.04	-49.338	236.44	617.06	392.05	501.97	868.73	521.62	151.93	531.6	406.35	129.69	1334.9	358.19	245.11	1081	546.22	-52.037	204.88	306.41	85.737	336.36	308.32	63.289	1094.4	83.809	-92.063	39.245	252.87	-112.78	41.389	340.45	118.59	433.96	391.56	392.36	687.48	90.101	9.5696	276.8	381.24	170.12	622.8	421.67	373.21	573.61	75.49	208.04	1400.7	73.889	19.698	270.54	308.83	66.993	1095.2	4.1229	109.52	944.38	177.88	-137.62	163	260.83	37.56	839.31	-40.52	326.63	1339.9	227.12	331.39	651.47	56.914	479.8	926.56	484.67	99.171	943.4	282.18	234.57	1562.9	164.4	467.29	382.6	158.27	95.418	1114.1	245.51	409.33	464.36	97.974	-47.149	24.543	274.34	417.74	1572.8	190.25	433.78	877.58	524.68	462.41	197.61	174.74	187.39	716.56	430.76	434.81	284.47	100.34	463.49	289.76	166.43	565.83	39.251	223.44	286.33	738.06	47.614	356.04	29.647	200.33	537.18	31.84	138.38	117.14	826.15	-25.352	400.96	70.411	153.36	219.95	1036.2	459.21	-166.99	166.63	347.05	609.53	42.084	205.7	-233.5	164.5	304.74	124.46	1211.5	1.5829	87.155	779.04	-71.505
